<svg width="24" height="24" viewBox="0 0 24 24" fill="none" xmlns="http://www.w3.org/2000/svg">
<path d="M6.68768 1.32812L22.6836 17.3002C23.3773 17.9973 23.7666 18.9399 23.7666 19.9225C23.7666 20.9051 23.3773 21.8478 22.6836 22.5448L22.5731 22.6555C21.8749 23.3487 20.9303 23.7378 19.9456 23.7378C18.9609 23.7378 18.0163 23.3487 17.3182 22.6555L1.32227 6.68295L6.68768 1.32812Z" fill="url(#paint0_linear)"/>
<path d="M19.9481 7.87087C22.0438 7.87087 23.7428 6.17482 23.7428 4.08265C23.7428 1.99048 22.0438 0.294434 19.9481 0.294434C17.8523 0.294434 16.1533 1.99048 16.1533 4.08265C16.1533 6.17482 17.8523 7.87087 19.9481 7.87087Z" fill="#1E5CF4"/>
<path d="M11.9849 6.61572C12.692 7.32145 13.253 8.15928 13.6358 9.08145C14.0185 10.0036 14.2155 10.992 14.2155 11.9902C14.2155 12.9884 14.0185 13.9768 13.6358 14.899C13.253 15.8212 12.692 16.659 11.9849 17.3647L6.79452 22.5403C6.07965 23.2495 5.11278 23.6476 4.10494 23.6476C3.09708 23.6476 2.13018 23.2495 1.41534 22.5403L1.41167 22.5366C0.700792 21.823 0.301758 20.8574 0.301758 19.851C0.301758 18.8445 0.700792 17.879 1.41167 17.1653L11.9849 6.61572Z" fill="url(#paint1_linear)"/>
<path d="M11.9723 17.3738C12.6811 16.6667 13.2433 15.8271 13.6269 14.903C14.0106 13.9789 14.208 12.9884 14.208 11.9881C14.208 10.9878 14.0106 9.99727 13.6269 9.07317C13.2433 8.14903 12.6811 7.30947 11.9723 6.60237C11.9402 6.57035 11.9077 6.53925 11.8756 6.50814L6.74388 1.38523C6.03029 0.677488 5.06525 0.280273 4.05934 0.280273C3.05345 0.280273 2.0884 0.677492 1.37481 1.38523L1.37114 1.38889C0.661857 2.10034 0.263672 3.06324 0.263672 4.06698C0.263672 5.07075 0.661862 6.03363 1.37114 6.74508L5.12326 10.4908L6.74067 12.1159C8.08303 13.5322 8.82992 15.4087 8.82727 17.3585C8.82461 19.3084 8.07267 21.1828 6.72647 22.5955L11.9663 17.3678L11.9723 17.3738Z" fill="#1E5CF4"/>
<defs>
<linearGradient id="paint0_linear" x1="1.32227" y1="12.5327" x2="23.7667" y2="12.5327" gradientUnits="userSpaceOnUse">
<stop stop-color="#1E5CF4" stop-opacity="0.47"/>
<stop offset="1" stop-color="#1E5CF4"/>
</linearGradient>
<linearGradient id="paint1_linear" x1="1.49277" y1="21.2033" x2="14.9733" y2="9.87252" gradientUnits="userSpaceOnUse">
<stop offset="0.1" stop-color="#003ED4"/>
<stop offset="0.55" stop-color="#003ED4"/>
</linearGradient>
</defs>
</svg>
