<svg width="30" height="30" viewBox="0 0 30 30" fill="none" xmlns="http://www.w3.org/2000/svg">
<circle cx="15" cy="15" r="15" fill="#CCD9F9"/>
<path d="M23.999 28.0903C23.999 27.9966 23.9808 27.9092 23.9485 27.828C23.3699 24.5206 21.1143 21.8148 18.1143 20.6887C20.0624 19.5648 21.3793 17.423 21.3793 14.9627C21.3793 11.339 18.523 8.40002 14.999 8.40002C11.4751 8.40002 8.61871 11.339 8.61871 14.9648C8.61871 17.4251 9.93564 19.5668 11.8837 20.6908C8.86956 21.821 6.6059 24.5477 6.0415 27.878C6.02532 27.9279 6.01521 27.9799 6.01116 28.0341C6.00914 28.0528 6.00307 28.0736 5.99902 28.0923H6.00509C6.00509 28.4836 6.31258 28.8 6.69289 28.8C7.0732 28.8 7.38068 28.4836 7.38068 28.0923H7.38271C8.03004 24.3624 11.1899 21.5275 15.001 21.5275C18.8122 21.5275 21.9721 24.3624 22.6194 28.0923H22.6275C22.6275 28.4816 22.935 28.7979 23.3132 28.7979C23.6915 28.7979 23.999 28.4816 23.999 28.0903C23.999 28.0923 23.999 28.0923 23.999 28.0903ZM9.98621 14.9648C9.98621 12.1174 12.2296 9.80706 14.999 9.80706C17.7664 9.80706 20.0118 12.1154 20.0118 14.9648C20.0118 17.8122 17.7684 20.1205 15.001 20.1205C15.001 20.1205 15.001 20.1205 14.999 20.1205C14.999 20.1205 14.999 20.1205 14.997 20.1205C12.2296 20.1205 9.98621 17.8122 9.98621 14.9648Z" fill="white"/>
</svg>
